<svg width="62" height="62" viewBox="0 0 62 62" fill="none" xmlns="http://www.w3.org/2000/svg">
<circle cx="31" cy="31" r="30.5" fill="#1D1D22" fill-opacity="0.5" stroke="#3D3D3D"/>
<path d="M16.8987 28.1806C16.4086 28.1806 16.0112 28.5779 16.0112 29.068V42.1027C16.0112 42.5928 16.4086 42.9901 16.8987 42.9901H22.2455V28.1806H16.8987ZM45.9884 33.0813C45.9884 31.9547 45.3831 30.9668 44.4806 30.4257C44.8385 29.9098 45.0299 29.2967 45.0292 28.6688C45.0292 26.963 43.6413 25.5751 41.9355 25.5751H35.4048C35.6049 24.6681 35.8787 23.307 36.0693 21.8822C36.5653 18.1743 36.2263 16.118 35.0025 15.4108C34.2395 14.97 33.4168 14.8806 32.686 15.1588C32.1215 15.3738 31.359 15.9025 30.9246 17.2001L29.2081 21.6943C28.3379 23.8433 25.6732 26.0995 24.0205 27.347V43.3828C27.0835 44.456 30.2796 45 33.5404 45H40.6563C42.3622 45 43.75 43.6122 43.75 41.9063C43.7507 41.3305 43.5898 40.766 43.2854 40.2772C44.3167 39.7749 45.0291 38.7159 45.0291 37.4938C45.0298 36.8659 44.8384 36.2528 44.4805 35.7369C45.3831 35.1958 45.9884 34.2079 45.9884 33.0813Z" fill="#F1F1F1"/>
</svg>
