<svg width="20" height="20" viewBox="0 0 20 20" fill="none" xmlns="http://www.w3.org/2000/svg">
  <g clip-path="url(#clip0_419_9407)">
    <path d="M20 6.36719V5.3125C20 4.10438 19.0206 3.125 17.8125 3.125H2.1875C0.979375 3.125 0 4.10438 0 5.3125V6.36719C0 6.41899 0.0205775 6.46867 0.0572057 6.50529C0.0938339 6.54192 0.143512 6.5625 0.195312 6.5625H19.8047C19.8565 6.5625 19.9062 6.54192 19.9428 6.50529C19.9794 6.46867 20 6.41899 20 6.36719ZM0 8.00781V14.6875C0 15.8956 0.979375 16.875 2.1875 16.875H17.8125C19.0206 16.875 20 15.8956 20 14.6875V8.00781C20 7.95601 19.9794 7.90633 19.9428 7.86971C19.9062 7.83308 19.8565 7.8125 19.8047 7.8125H0.195312C0.143512 7.8125 0.0938339 7.83308 0.0572057 7.86971C0.0205775 7.90633 0 7.95601 0 8.00781ZM5 13.125C5 13.4702 4.72016 13.75 4.375 13.75H3.75C3.40484 13.75 3.125 13.4702 3.125 13.125V12.5C3.125 12.1548 3.40484 11.875 3.75 11.875H4.375C4.72016 11.875 5 12.1548 5 12.5V13.125Z" fill="#F1F1F1" />
  </g>
  <defs>
    <clipPath id="clip0_419_9407">
      <rect width="20" height="20" fill="white" />
    </clipPath>
  </defs>
</svg>