<svg width="62" height="62" viewBox="0 0 62 62" fill="none" xmlns="http://www.w3.org/2000/svg">
  <circle cx="31" cy="30.9995" r="30.5" fill="#1D1D22" fill-opacity="0.5" stroke="#3D3D3D" />
  <path d="M33.3727 27.1296C33.6314 26.2714 33.8125 25.3796 33.8125 24.437C33.8125 19.2594 29.6151 14.9995 24.4375 14.9995C19.2599 14.9995 15 19.2594 15 24.437C15 29.6146 19.2599 33.812 24.4375 33.812C25.3801 33.812 26.2719 33.631 27.1301 33.3722C28.2733 30.5361 30.5366 28.2728 33.3727 27.1296ZM27.25 23.4995C27.7682 23.4995 28.1875 23.9188 28.1875 24.437V26.312C28.1875 27.8629 26.9259 29.1245 25.375 29.1245V30.062C25.375 30.5802 24.9557 30.9995 24.4375 30.9995C23.9193 30.9995 23.5 30.5802 23.5 30.062V29.1245H21.625C21.1068 29.1245 20.6875 28.7052 20.6875 28.187C20.6875 27.6688 21.1068 27.2495 21.625 27.2495H25.375C25.8923 27.2495 26.3125 26.8293 26.3125 26.312V25.3745H21.625C21.1068 25.3745 20.6875 24.9552 20.6875 24.437V22.562C20.6875 21.0111 21.9491 19.7495 23.5 19.7495V18.812C23.5 18.2938 23.9193 17.8745 24.4375 17.8745C24.9557 17.8745 25.375 18.2938 25.375 18.812V19.7495H27.25C27.7682 19.7495 28.1875 20.1688 28.1875 20.687C28.1875 21.2052 27.7682 21.6245 27.25 21.6245H23.5C22.9827 21.6245 22.5625 22.0448 22.5625 22.562V23.4995H27.25ZM39.4375 34.7495H36.625V36.6245H39.4375C39.9548 36.6245 40.375 36.2043 40.375 35.687C40.375 35.1698 39.9548 34.7495 39.4375 34.7495ZM39.4375 38.4995H36.625V40.3745H39.4375C39.9548 40.3745 40.375 39.9543 40.375 39.437C40.375 38.9198 39.9548 38.4995 39.4375 38.4995Z" fill="#F1F1F1" />
  <path d="M37.5625 28.187C32.3848 28.187 28.1875 32.3844 28.1875 37.562C28.1875 42.7396 32.3848 46.9995 37.5625 46.9995C42.7401 46.9995 47 42.7396 47 37.562C47 32.3844 42.7401 28.187 37.5625 28.187ZM42.25 39.437C42.25 40.6576 41.4638 41.6885 40.375 42.0768V43.187C40.375 43.7052 39.9556 44.1245 39.4375 44.1245C38.9193 44.1245 38.5 43.7052 38.5 43.187V42.2495H36.625V43.187C36.625 43.7052 36.2056 44.1245 35.6875 44.1245C35.1693 44.1245 34.75 43.7052 34.75 43.187V42.2495H33.8125C33.2943 42.2495 32.875 41.8302 32.875 41.312C32.875 40.7938 33.2943 40.3745 33.8125 40.3745H34.75V34.7495H33.8125C33.2943 34.7495 32.875 34.3302 32.875 33.812C32.875 33.2938 33.2943 32.8745 33.8125 32.8745H34.75V31.937C34.75 31.4188 35.1693 30.9995 35.6875 30.9995C36.2056 30.9995 36.625 31.4188 36.625 31.937V32.8745H38.5V31.937C38.5 31.4188 38.9193 30.9995 39.4375 30.9995C39.9556 30.9995 40.375 31.4188 40.375 31.937V33.0472C41.4638 33.4355 42.25 34.4664 42.25 35.687C42.25 36.4099 41.9682 37.0633 41.5185 37.562C41.9682 38.0608 42.25 38.7141 42.25 39.437ZM23.5 43.187H21.625C21.1077 43.187 20.6875 42.7668 20.6875 42.2495V40.7627L20.9621 41.0374C21.3283 41.4036 21.9216 41.4036 22.2878 41.0374C22.654 40.6712 22.654 40.0779 22.2878 39.7117L20.4128 37.8367C20.0466 37.4705 19.4533 37.4705 19.0871 37.8367L17.2121 39.7117C16.846 40.0779 16.846 40.6712 17.2121 41.0374C17.5783 41.4036 18.1716 41.4036 18.5378 41.0374L18.8125 40.7627V42.2495C18.8125 43.8004 20.0741 45.062 21.625 45.062H23.5C24.0181 45.062 24.4375 44.6427 24.4375 44.1245C24.4375 43.6063 24.0181 43.187 23.5 43.187ZM40.375 16.937H38.5C37.9818 16.937 37.5625 17.3563 37.5625 17.8745C37.5625 18.3927 37.9818 18.812 38.5 18.812H40.375C40.8922 18.812 41.3125 19.2323 41.3125 19.7495V21.2363L41.0378 20.9616C40.6716 20.5954 40.0783 20.5954 39.7121 20.9616C39.3459 21.3278 39.3459 21.9211 39.7121 22.2873L41.5871 24.1623C41.7702 24.3454 42.0101 24.437 42.2499 24.437C42.4897 24.437 42.7296 24.3454 42.9127 24.1623L44.7877 22.2873C45.1539 21.9211 45.1539 21.3278 44.7877 20.9616C44.4215 20.5954 43.8282 20.5954 43.462 20.9616L43.1875 21.2363V19.7495C43.1875 18.1986 41.9258 16.937 40.375 16.937Z" fill="#F1F1F1" />
</svg>