<svg width="62" height="62" viewBox="0 0 62 62" fill="none" xmlns="http://www.w3.org/2000/svg">
<circle cx="31" cy="30.9995" r="30.5" fill="#1D1D22" fill-opacity="0.5" stroke="#3D3D3D"/>
<path d="M41.5125 31.131C39.5972 32.5674 37.259 33.5646 34.7143 34.0567C34.4573 35.8769 32.8901 37.2818 31 37.2818C29.1099 37.2818 27.5427 35.8769 27.2857 34.0567C24.741 33.5646 22.4028 32.5674 20.4875 31.131C17.5937 28.9606 16 26.0513 16 22.939V38.9058C16 41.2926 17.9419 43.2344 20.3286 43.2344H41.6714C44.0581 43.2344 46 41.2926 46 38.9058V22.939C46 26.0513 44.4063 28.9606 41.5125 31.131Z" fill="#F1F1F1"/>
<path d="M27.2479 32.2532V30.6567C27.2479 30.1713 27.6415 29.7778 28.1269 29.7778H33.8731C34.3585 29.7778 34.7521 30.1713 34.7521 30.6567V32.2532C40.2321 31.0637 44.2422 27.3387 44.2422 22.939V22.0601H37.1743V20.3135C37.1743 18.3566 35.5823 16.7646 33.6255 16.7646H28.3746C26.4178 16.7646 24.8257 18.3566 24.8257 20.3135V22.0601H17.7578V22.939C17.7578 27.3387 21.7679 31.0637 27.2479 32.2532ZM26.5835 20.3135C26.5835 19.3259 27.387 18.5225 28.3745 18.5225H33.6254C34.6129 18.5225 35.4164 19.3259 35.4164 20.3135V22.0601H26.5834V20.3135H26.5835Z" fill="#F1F1F1"/>
<path d="M32.9942 31.5356H29.0057V33.5299C29.0057 34.6295 29.9004 35.5241 31 35.5241C32.0995 35.5241 32.9942 34.6295 32.9942 33.5299V31.5356Z" fill="#F1F1F1"/>
</svg>
