<svg width="300" height="216" viewBox="0 0 300 216" fill="none" xmlns="http://www.w3.org/2000/svg">
<g filter="url(#filter0_d_419_13608)">
<rect x="20" y="16" width="260" height="176" rx="10" fill="url(#paint0_linear_419_13608)" fill-opacity="0.3" shape-rendering="crispEdges"/>
<rect x="20.5" y="16.5" width="259" height="175" rx="9.5" stroke="url(#paint1_linear_419_13608)" shape-rendering="crispEdges"/>
</g>
<line x1="70.5" y1="45.5" x2="132.5" y2="45.5" stroke="url(#paint2_linear_419_13608)" stroke-width="3" stroke-linecap="round"/>
<line x1="70.5" y1="53.5" x2="105.5" y2="53.5" stroke="url(#paint3_linear_419_13608)" stroke-width="3" stroke-linecap="round"/>
<line x1="70.5" y1="91.5" x2="132.5" y2="91.5" stroke="url(#paint4_linear_419_13608)" stroke-width="3" stroke-linecap="round"/>
<line x1="70.5" y1="99.5" x2="105.5" y2="99.5" stroke="url(#paint5_linear_419_13608)" stroke-width="3" stroke-linecap="round"/>
<line x1="70.5" y1="138.5" x2="132.5" y2="138.5" stroke="url(#paint6_linear_419_13608)" stroke-width="3" stroke-linecap="round"/>
<line x1="70.5" y1="146.5" x2="105.5" y2="146.5" stroke="url(#paint7_linear_419_13608)" stroke-width="3" stroke-linecap="round"/>
<path d="M188.24 53V44.36H187.346L185.72 45.332V46.322L187.346 45.344V53H188.24ZM189.915 54.254C190.539 54.374 190.941 53.978 190.941 53.24V51.734H189.915V53H190.461C190.485 53.45 190.443 53.846 189.969 53.816L189.915 54.254ZM197.399 49.376C198.239 48.626 198.623 48.026 198.623 46.94C198.623 45.398 197.429 44.18 195.857 44.18C194.255 44.18 193.037 45.35 193.037 46.928H193.937C193.925 45.914 194.741 45.026 195.845 45.026C196.907 45.026 197.729 45.866 197.729 46.934C197.729 47.534 197.561 48.062 196.895 48.662L192.989 52.19L192.983 52.994H198.623V52.148H194.327L197.399 49.376ZM202.887 53.18C204.489 53.18 205.707 51.962 205.707 50.36V47C205.707 45.398 204.489 44.18 202.887 44.18C201.285 44.18 200.067 45.398 200.067 47V50.36C200.067 51.962 201.285 53.18 202.887 53.18ZM202.887 52.328C201.825 52.328 200.961 51.464 200.961 50.402V46.958C200.961 45.89 201.825 45.026 202.887 45.026C203.949 45.026 204.813 45.89 204.813 46.958V50.402C204.813 51.464 203.949 52.328 202.887 52.328ZM210.211 53.18C211.813 53.18 213.031 51.962 213.031 50.36V47C213.031 45.398 211.813 44.18 210.211 44.18C208.609 44.18 207.391 45.398 207.391 47V50.36C207.391 51.962 208.609 53.18 210.211 53.18ZM210.211 52.328C209.149 52.328 208.285 51.464 208.285 50.402V46.958C208.285 45.89 209.149 45.026 210.211 45.026C211.273 45.026 212.137 45.89 212.137 46.958V50.402C212.137 51.464 211.273 52.328 210.211 52.328ZM215.909 53V51.974H214.883V53H215.909ZM220.582 53.18C222.184 53.18 223.402 51.962 223.402 50.36V47C223.402 45.398 222.184 44.18 220.582 44.18C218.98 44.18 217.762 45.398 217.762 47V50.36C217.762 51.962 218.98 53.18 220.582 53.18ZM220.582 52.328C219.52 52.328 218.656 51.464 218.656 50.402V46.958C218.656 45.89 219.52 45.026 220.582 45.026C221.644 45.026 222.508 45.89 222.508 46.958V50.402C222.508 51.464 221.644 52.328 220.582 52.328ZM227.906 53.18C229.508 53.18 230.726 51.962 230.726 50.36V47C230.726 45.398 229.508 44.18 227.906 44.18C226.304 44.18 225.086 45.398 225.086 47V50.36C225.086 51.962 226.304 53.18 227.906 53.18ZM227.906 52.328C226.844 52.328 225.98 51.464 225.98 50.402V46.958C225.98 45.89 226.844 45.026 227.906 45.026C228.968 45.026 229.832 45.89 229.832 46.958V50.402C229.832 51.464 228.968 52.328 227.906 52.328ZM238.185 53.18C240.159 53.18 241.557 51.866 241.557 49.88V44.36H240.669V49.766C240.669 51.56 239.307 52.346 238.185 52.346C237.075 52.346 235.701 51.566 235.701 49.766V44.36L234.813 44.366V49.88C234.813 51.878 236.211 53.18 238.185 53.18ZM245.875 53.18C247.681 53.18 249.031 52.25 249.031 50.642C249.031 49.004 247.633 48.578 246.931 48.38L245.239 47.882C244.567 47.69 243.703 47.396 243.703 46.52C243.703 45.662 244.561 45.02 245.719 45.026C246.925 45.038 247.885 45.752 248.059 46.874L248.983 46.706C248.701 45.152 247.453 44.192 245.725 44.186C244.021 44.18 242.773 45.098 242.773 46.556C242.773 47.714 243.559 48.314 244.615 48.626L246.805 49.28C247.405 49.46 248.131 49.79 248.131 50.678C248.131 51.698 247.189 52.334 245.911 52.334C244.621 52.334 243.625 51.662 243.337 50.54L242.437 50.69C242.731 52.226 244.069 53.18 245.875 53.18ZM252.892 53C253.06 53 253.6 53 254.002 52.946C255.97 52.676 256.966 50.894 256.966 48.68C256.966 46.478 255.97 44.684 254.002 44.414C253.588 44.36 253.072 44.36 252.892 44.36H250.27V53H252.892ZM251.182 45.206H252.892C253.204 45.206 253.636 45.224 253.912 45.278C255.412 45.542 256.03 46.934 256.03 48.68C256.03 50.402 255.424 51.818 253.912 52.082C253.636 52.136 253.216 52.154 252.892 52.154H251.182V45.206ZM261.278 53V45.206H264.296V44.36H257.378V45.206H260.396V53H261.278Z" fill="#F1F1F1"/>
<path d="M198.016 95.376C198.856 94.626 199.24 94.026 199.24 92.94C199.24 91.398 198.046 90.18 196.474 90.18C194.872 90.18 193.654 91.35 193.654 92.928H194.554C194.542 91.914 195.358 91.026 196.462 91.026C197.524 91.026 198.346 91.866 198.346 92.934C198.346 93.534 198.178 94.062 197.512 94.662L193.606 98.19L193.6 98.994H199.24V98.148H194.944L198.016 95.376ZM205.141 99V97.326H206.083V96.486H205.141V93.966H204.253V96.486H201.199L204.091 90.36H203.101L200.209 96.486V97.326H204.253V99H205.141ZM210.348 99.18C211.95 99.18 213.168 97.962 213.168 96.36V93C213.168 91.398 211.95 90.18 210.348 90.18C208.746 90.18 207.528 91.398 207.528 93V96.36C207.528 97.962 208.746 99.18 210.348 99.18ZM210.348 98.328C209.286 98.328 208.422 97.464 208.422 96.402V92.958C208.422 91.89 209.286 91.026 210.348 91.026C211.41 91.026 212.274 91.89 212.274 92.958V96.402C212.274 97.464 211.41 98.328 210.348 98.328ZM216.046 99V97.974H215.02V99H216.046ZM220.719 99.18C222.321 99.18 223.539 97.962 223.539 96.36V93C223.539 91.398 222.321 90.18 220.719 90.18C219.117 90.18 217.899 91.398 217.899 93V96.36C217.899 97.962 219.117 99.18 220.719 99.18ZM220.719 98.328C219.657 98.328 218.793 97.464 218.793 96.402V92.958C218.793 91.89 219.657 91.026 220.719 91.026C221.781 91.026 222.645 91.89 222.645 92.958V96.402C222.645 97.464 221.781 98.328 220.719 98.328ZM228.043 99.18C229.645 99.18 230.863 97.962 230.863 96.36V93C230.863 91.398 229.645 90.18 228.043 90.18C226.441 90.18 225.223 91.398 225.223 93V96.36C225.223 97.962 226.441 99.18 228.043 99.18ZM228.043 98.328C226.981 98.328 226.117 97.464 226.117 96.402V92.958C226.117 91.89 226.981 91.026 228.043 91.026C229.105 91.026 229.969 91.89 229.969 92.958V96.402C229.969 97.464 229.105 98.328 228.043 98.328ZM238.321 99.18C240.295 99.18 241.693 97.866 241.693 95.88V90.36H240.805V95.766C240.805 97.56 239.443 98.346 238.321 98.346C237.211 98.346 235.837 97.566 235.837 95.766V90.36L234.949 90.366V95.88C234.949 97.878 236.347 99.18 238.321 99.18ZM246.012 99.18C247.818 99.18 249.168 98.25 249.168 96.642C249.168 95.004 247.77 94.578 247.068 94.38L245.376 93.882C244.704 93.69 243.84 93.396 243.84 92.52C243.84 91.662 244.698 91.02 245.856 91.026C247.062 91.038 248.022 91.752 248.196 92.874L249.12 92.706C248.838 91.152 247.59 90.192 245.862 90.186C244.158 90.18 242.91 91.098 242.91 92.556C242.91 93.714 243.696 94.314 244.752 94.626L246.942 95.28C247.542 95.46 248.268 95.79 248.268 96.678C248.268 97.698 247.326 98.334 246.048 98.334C244.758 98.334 243.762 97.662 243.474 96.54L242.574 96.69C242.868 98.226 244.206 99.18 246.012 99.18ZM253.028 99C253.196 99 253.736 99 254.138 98.946C256.106 98.676 257.102 96.894 257.102 94.68C257.102 92.478 256.106 90.684 254.138 90.414C253.724 90.36 253.208 90.36 253.028 90.36H250.406V99H253.028ZM251.318 91.206H253.028C253.34 91.206 253.772 91.224 254.048 91.278C255.548 91.542 256.166 92.934 256.166 94.68C256.166 96.402 255.56 97.818 254.048 98.082C253.772 98.136 253.352 98.154 253.028 98.154H251.318V91.206ZM261.415 99V91.206H264.433V90.36H257.515V91.206H260.533V99H261.415Z" fill="#F1F1F1"/>
<path d="M174.66 146.18C176.262 146.18 177.48 144.962 177.48 143.36V140C177.48 138.398 176.262 137.18 174.66 137.18C173.058 137.18 171.84 138.398 171.84 140V143.36C171.84 144.962 173.058 146.18 174.66 146.18ZM174.66 145.328C173.598 145.328 172.734 144.464 172.734 143.402V139.958C172.734 138.89 173.598 138.026 174.66 138.026C175.722 138.026 176.586 138.89 176.586 139.958V143.402C176.586 144.464 175.722 145.328 174.66 145.328ZM180.358 146V144.974H179.332V146H180.358ZM185.031 146.18C186.633 146.18 187.851 144.962 187.851 143.36V140C187.851 138.398 186.633 137.18 185.031 137.18C183.429 137.18 182.211 138.398 182.211 140V143.36C182.211 144.962 183.429 146.18 185.031 146.18ZM185.031 145.328C183.969 145.328 183.105 144.464 183.105 143.402V139.958C183.105 138.89 183.969 138.026 185.031 138.026C186.093 138.026 186.957 138.89 186.957 139.958V143.402C186.957 144.464 186.093 145.328 185.031 145.328ZM192.355 146.18C193.957 146.18 195.175 144.962 195.175 143.36V140C195.175 138.398 193.957 137.18 192.355 137.18C190.753 137.18 189.535 138.398 189.535 140V143.36C189.535 144.962 190.753 146.18 192.355 146.18ZM192.355 145.328C191.293 145.328 190.429 144.464 190.429 143.402V139.958C190.429 138.89 191.293 138.026 192.355 138.026C193.417 138.026 194.281 138.89 194.281 139.958V143.402C194.281 144.464 193.417 145.328 192.355 145.328ZM201.048 141.38C201.72 140.984 202.05 140.282 202.05 139.502C202.05 138.062 200.982 137.18 199.494 137.18C198.006 137.18 196.944 138.062 196.944 139.502C196.944 140.276 197.286 140.978 197.952 141.374C197.13 141.842 196.74 142.634 196.74 143.576C196.74 145.154 197.874 146.18 199.494 146.18C201.12 146.18 202.266 145.154 202.266 143.576C202.266 142.64 201.852 141.848 201.048 141.38ZM199.494 138.05C200.454 138.05 201.114 138.536 201.114 139.502C201.114 140.474 200.454 140.966 199.494 140.966C198.534 140.966 197.88 140.474 197.88 139.502C197.88 138.536 198.534 138.05 199.494 138.05ZM199.494 145.334C198.408 145.334 197.67 144.71 197.67 143.576C197.67 142.43 198.39 141.818 199.494 141.818C200.598 141.818 201.33 142.43 201.33 143.576C201.33 144.71 200.586 145.334 199.494 145.334ZM206.22 146V137.36H205.326L203.7 138.332V139.322L205.326 138.344V146H206.22ZM213.47 138.218V137.36H208.478V138.206H212.348L209.378 140.948L209.822 141.65C210.116 141.506 210.482 141.41 210.794 141.41C211.91 141.41 212.66 142.19 212.66 143.366C212.66 144.524 211.958 145.298 210.806 145.322C209.978 145.34 209.264 144.89 208.976 144.032L208.136 144.284C208.502 145.454 209.534 146.174 210.818 146.174C212.408 146.174 213.572 145.028 213.572 143.366C213.572 141.752 212.51 140.624 210.938 140.636L213.47 138.218ZM219.305 142.376C220.145 141.626 220.529 141.026 220.529 139.94C220.529 138.398 219.335 137.18 217.763 137.18C216.161 137.18 214.943 138.35 214.943 139.928H215.843C215.831 138.914 216.647 138.026 217.751 138.026C218.813 138.026 219.635 138.866 219.635 139.934C219.635 140.534 219.467 141.062 218.801 141.662L214.895 145.19L214.889 145.994H220.529V145.148H216.233L219.305 142.376ZM224.373 146V137.36H223.479L221.853 138.332V139.322L223.479 138.344V146H224.373ZM231.623 138.218V137.36H226.631V138.206H230.501L227.531 140.948L227.975 141.65C228.269 141.506 228.635 141.41 228.947 141.41C230.063 141.41 230.813 142.19 230.813 143.366C230.813 144.524 230.111 145.298 228.959 145.322C228.131 145.34 227.417 144.89 227.129 144.032L226.289 144.284C226.655 145.454 227.687 146.174 228.971 146.174C230.561 146.174 231.725 145.028 231.725 143.366C231.725 141.752 230.663 140.624 229.091 140.636L231.623 138.218ZM237.973 146V144.326H238.915V143.486H237.973V140.966H237.085V143.486H234.031L236.923 137.36H235.933L233.041 143.486V144.326H237.085V146H237.973ZM247.49 141.416C248.114 141.056 248.504 140.372 248.504 139.586C248.504 138.362 247.544 137.36 246.098 137.36H242.762V146H246.374C247.898 146 248.924 145.076 248.924 143.576C248.924 142.574 248.39 141.806 247.49 141.416ZM246.092 138.194C246.962 138.194 247.592 138.758 247.592 139.574C247.592 140.438 246.92 141.044 246.092 141.044H243.65V138.194H246.092ZM243.65 145.154V141.878H246.32C247.292 141.878 248.012 142.634 248.012 143.588C248.012 144.572 247.208 145.154 246.158 145.154H243.65ZM253.067 146V138.206H256.085V137.36H249.167V138.206H252.185V146H253.067ZM260.545 146.18C262.549 146.18 263.839 145.07 264.313 143.342L263.413 143.108C263.047 144.47 262.093 145.334 260.545 145.334C258.517 145.334 257.485 143.84 257.497 141.68C257.515 139.52 258.517 138.026 260.545 138.026C262.093 138.026 263.047 138.89 263.413 140.252L264.313 140.018C263.839 138.29 262.549 137.18 260.545 137.18C257.965 137.18 256.567 139.022 256.567 141.68C256.567 144.338 257.965 146.18 260.545 146.18Z" fill="#F1F1F1"/>
<line x1="35" y1="71.5" x2="265" y2="71.5" stroke="#464850"/>
<line x1="35" y1="116.5" x2="265" y2="116.5" stroke="#464850"/>
<circle cx="47" cy="48" r="11.3889" fill="#25262D" stroke="#3D3D3D" stroke-width="1.22222"/>
<path d="M50.8731 44.492C50.452 44.1087 49.7411 44.4218 49.4026 44.7604C49.4026 44.7604 48.609 45.5112 48.2798 45.7966C48.2018 45.8642 48.1245 45.84 48.1245 45.84L44.5454 45.2105C44.3915 45.1886 44.1759 45.2605 44.0662 45.3704L43.7467 45.6897C43.6367 45.7995 43.6604 45.9465 43.7992 46.0163L46.4402 47.3886C46.4402 47.3886 46.6439 47.4898 46.5211 47.6067C46.0857 48.0213 45.347 48.7657 44.947 49.1681C44.8159 49.3 44.6429 49.2801 44.6429 49.2801L43.4233 49.1312C43.2682 49.12 43.0516 49.2008 42.9417 49.3106L42.3886 49.8639C42.2787 49.9737 42.2953 50.1328 42.4256 50.2175L44.4525 50.7003C44.5828 50.785 44.6184 50.8205 44.703 50.9506L45.1542 52.9463C45.2389 53.0765 45.3981 53.0931 45.5079 52.9833L46.0611 52.43C46.1709 52.3202 46.2519 52.1036 46.241 51.9487L46.0963 50.7728C46.0963 50.7728 46.0748 50.6233 46.157 50.54C46.5632 50.1284 47.3719 49.3411 47.7979 48.9097C47.93 48.7759 47.986 48.9436 47.986 48.9436L49.3488 51.5658C49.4185 51.7047 49.5657 51.7284 49.6756 51.6186L49.9949 51.2989C50.1046 51.1891 50.1768 50.9735 50.1551 50.8198L49.5501 47.3425C49.5501 47.3425 49.5241 47.2208 49.5974 47.1416C49.8602 46.8577 50.646 46.0035 50.646 46.0035C50.9843 45.665 51.3149 44.8941 50.8731 44.492Z" fill="#F1F1F1"/>
<path d="M55 52C52.2429 52 50 54.243 50 57C50 59.757 52.2429 62 55 62C57.7571 62 60 59.757 60 57C60 54.243 57.7571 52 55 52ZM57.3484 56.4434L55.0263 58.7654C54.7716 59.0202 54.3589 59.0202 54.1041 58.7654L52.7603 57.4216C52.5055 57.167 52.5055 56.7541 52.7603 56.4994C53.015 56.2446 53.4277 56.2446 53.6825 56.4994L54.5652 57.382L56.4262 55.5211C56.681 55.2663 57.0937 55.2663 57.3484 55.5211C57.6032 55.7758 57.6032 56.1887 57.3484 56.4434Z" fill="#F1F1F1"/>
<circle cx="47" cy="94" r="11.3889" fill="#25262D" stroke="#3D3D3D" stroke-width="1.22222"/>
<path d="M50.5795 93.2501C50.3884 93.1662 50.1819 93.123 49.9732 93.1232H44.5159C44.3072 93.123 44.1007 93.1661 43.9095 93.2499C43.6394 93.3681 43.4095 93.5624 43.2479 93.8091C43.0864 94.0558 43.0003 94.3442 43 94.6391V96.7613C43 96.8418 43.0319 96.9189 43.0888 96.9757C43.1457 97.0326 43.2228 97.0645 43.3032 97.0645C43.3836 97.0645 43.4607 97.0326 43.5176 96.9757C43.5744 96.9189 43.6064 96.8418 43.6064 96.7613V96.6098C43.6069 96.5697 43.623 96.5314 43.6513 96.5031C43.6796 96.4748 43.7179 96.4587 43.758 96.4582H50.7311C50.7712 96.4587 50.8095 96.4748 50.8378 96.5031C50.8661 96.5314 50.8822 96.5697 50.8827 96.6098V96.7613C50.8827 96.8418 50.9147 96.9189 50.9715 96.9757C51.0284 97.0326 51.1055 97.0645 51.1859 97.0645C51.2663 97.0645 51.3434 97.0326 51.4003 96.9757C51.4571 96.9189 51.4891 96.8418 51.4891 96.7613V94.6391C51.4888 94.3442 51.4026 94.0559 51.2411 93.8092C51.0796 93.5625 50.8497 93.3683 50.5795 93.2501ZM49.5184 90.3945H44.9707C44.6893 90.3945 44.4193 90.5063 44.2203 90.7053C44.0213 90.9043 43.9095 91.1742 43.9095 91.4557V92.82C43.9096 92.8317 43.9123 92.8433 43.9175 92.8538C43.9228 92.8643 43.9304 92.8735 43.9398 92.8805C43.9492 92.8876 43.9601 92.8924 43.9717 92.8945C43.9832 92.8966 43.9951 92.896 44.0064 92.8927C44.1719 92.8443 44.3435 92.8198 44.5159 92.82H44.5961C44.6148 92.8201 44.6329 92.8133 44.6469 92.8009C44.6608 92.7885 44.6698 92.7713 44.6719 92.7527C44.6884 92.6046 44.7589 92.4677 44.87 92.3683C44.981 92.2688 45.1248 92.2138 45.2739 92.2136H46.335C46.4842 92.2136 46.6281 92.2686 46.7393 92.3681C46.8504 92.4675 46.921 92.6045 46.9376 92.7527C46.9397 92.7713 46.9486 92.7885 46.9626 92.8009C46.9766 92.8133 46.9947 92.8201 47.0134 92.82H47.4769C47.4956 92.8201 47.5137 92.8133 47.5277 92.8009C47.5416 92.7885 47.5505 92.7713 47.5527 92.7527C47.5692 92.6047 47.6396 92.4679 47.7506 92.3685C47.8615 92.269 48.0051 92.2139 48.1541 92.2136H49.2152C49.3644 92.2136 49.5083 92.2686 49.6195 92.3681C49.7306 92.4675 49.8013 92.6045 49.8178 92.7527C49.8199 92.7713 49.8288 92.7885 49.8428 92.8009C49.8568 92.8133 49.8749 92.8201 49.8936 92.82H49.9732C50.1456 92.8199 50.3172 92.8445 50.4827 92.8929C50.494 92.8962 50.5059 92.8968 50.5175 92.8947C50.5291 92.8925 50.54 92.8877 50.5494 92.8807C50.5588 92.8736 50.5664 92.8644 50.5716 92.8539C50.5768 92.8434 50.5796 92.8317 50.5795 92.82V91.4557C50.5795 91.1742 50.4677 90.9043 50.2687 90.7053C50.0697 90.5063 49.7998 90.3945 49.5184 90.3945Z" fill="#F1F1F1"/>
<path d="M55 98C52.2429 98 50 100.243 50 103C50 105.757 52.2429 108 55 108C57.7571 108 60 105.757 60 103C60 100.243 57.7571 98 55 98ZM57.3484 102.443L55.0263 104.765C54.7716 105.02 54.3589 105.02 54.1041 104.765L52.7603 103.422C52.5055 103.167 52.5055 102.754 52.7603 102.499C53.015 102.245 53.4277 102.245 53.6825 102.499L54.5652 103.382L56.4262 101.521C56.681 101.266 57.0937 101.266 57.3484 101.521C57.6032 101.776 57.6032 102.189 57.3484 102.443Z" fill="#F1F1F1"/>
<circle cx="47" cy="140" r="11.3889" fill="#25262D" stroke="#3D3D3D" stroke-width="1.22222"/>
<path d="M46.173 143.917C46.5972 143.917 46.941 143.573 46.941 143.149C46.941 142.725 46.5972 142.381 46.173 142.381C45.7489 142.381 45.405 142.725 45.405 143.149C45.405 143.573 45.7489 143.917 46.173 143.917Z" fill="#F1F1F1"/>
<path d="M48.7497 143.917C49.1738 143.917 49.5177 143.573 49.5177 143.149C49.5177 142.725 49.1738 142.381 48.7497 142.381C48.3255 142.381 47.9817 142.725 47.9817 143.149C47.9817 143.573 48.3255 143.917 48.7497 143.917Z" fill="#F1F1F1"/>
<path d="M42.5719 136.749H43.6395L44.8754 141.075L44.7784 141.269C44.5232 141.779 44.8937 142.381 45.4654 142.381H49.7739C49.9154 142.381 50.0299 142.266 50.0299 142.125C50.0299 141.983 49.9154 141.869 49.7739 141.869H45.4654C45.2753 141.869 45.1511 141.669 45.2364 141.498L45.3072 141.357H49.7739C49.8295 141.357 49.8836 141.339 49.9281 141.305C49.9725 141.272 50.0048 141.224 50.0201 141.171L51.0441 137.587C51.0549 137.549 51.0568 137.509 51.0496 137.47C51.0423 137.431 51.0262 137.394 51.0023 137.363C50.9784 137.331 50.9475 137.305 50.912 137.288C50.8766 137.27 50.8375 137.261 50.7979 137.261H44.3182L44.0787 136.423C44.0634 136.369 44.0311 136.322 43.9866 136.288C43.9422 136.255 43.8881 136.237 43.8324 136.237H42.5719C42.4304 136.237 42.3159 136.351 42.3159 136.493C42.3159 136.634 42.4304 136.749 42.5719 136.749Z" fill="#F1F1F1"/>
<path d="M55 144C52.2429 144 50 146.243 50 149C50 151.757 52.2429 154 55 154C57.7571 154 60 151.757 60 149C60 146.243 57.7571 144 55 144ZM57.3484 148.443L55.0263 150.765C54.7716 151.02 54.3589 151.02 54.1041 150.765L52.7603 149.422C52.5055 149.167 52.5055 148.754 52.7603 148.499C53.015 148.245 53.4277 148.245 53.6825 148.499L54.5652 149.382L56.4262 147.521C56.681 147.266 57.0937 147.266 57.3484 147.521C57.6032 147.776 57.6032 148.189 57.3484 148.443Z" fill="#F1F1F1"/>
<defs>
<filter id="filter0_d_419_13608" x="0" y="0" width="300" height="216" filterUnits="userSpaceOnUse" color-interpolation-filters="sRGB">
<feFlood flood-opacity="0" result="BackgroundImageFix"/>
<feColorMatrix in="SourceAlpha" type="matrix" values="0 0 0 0 0 0 0 0 0 0 0 0 0 0 0 0 0 0 127 0" result="hardAlpha"/>
<feOffset dy="4"/>
<feGaussianBlur stdDeviation="10"/>
<feComposite in2="hardAlpha" operator="out"/>
<feColorMatrix type="matrix" values="0 0 0 0 0.0583333 0 0 0 0 0.0583333 0 0 0 0 0.0583333 0 0 0 0.2 0"/>
<feBlend mode="normal" in2="BackgroundImageFix" result="effect1_dropShadow_419_13608"/>
<feBlend mode="normal" in="SourceGraphic" in2="effect1_dropShadow_419_13608" result="shape"/>
</filter>
<linearGradient id="paint0_linear_419_13608" x1="131.129" y1="1.67442" x2="133.626" y2="176.653" gradientUnits="userSpaceOnUse">
<stop stop-color="#252525"/>
<stop offset="0.5625" stop-color="#33343A"/>
<stop offset="1" stop-color="#1A1A1A" stop-opacity="0"/>
</linearGradient>
<linearGradient id="paint1_linear_419_13608" x1="150" y1="16" x2="150" y2="183.302" gradientUnits="userSpaceOnUse">
<stop stop-color="#3D3D3D"/>
<stop offset="0.645833" stop-color="#3D3D3D" stop-opacity="0.796875"/>
<stop offset="1" stop-color="#3D3D3D" stop-opacity="0"/>
</linearGradient>
<linearGradient id="paint2_linear_419_13608" x1="135" y1="45.5" x2="66" y2="47" gradientUnits="userSpaceOnUse">
<stop stop-color="#878787"/>
<stop offset="1" stop-color="#4B4B4B"/>
</linearGradient>
<linearGradient id="paint3_linear_419_13608" x1="107.585" y1="53.5" x2="67.2336" y2="54.0128" gradientUnits="userSpaceOnUse">
<stop stop-color="#878787"/>
<stop offset="1" stop-color="#4B4B4B"/>
</linearGradient>
<linearGradient id="paint4_linear_419_13608" x1="135" y1="91.5" x2="66" y2="93" gradientUnits="userSpaceOnUse">
<stop stop-color="#878787"/>
<stop offset="1" stop-color="#4B4B4B"/>
</linearGradient>
<linearGradient id="paint5_linear_419_13608" x1="107.585" y1="99.5" x2="67.2336" y2="100.013" gradientUnits="userSpaceOnUse">
<stop stop-color="#878787"/>
<stop offset="1" stop-color="#4B4B4B"/>
</linearGradient>
<linearGradient id="paint6_linear_419_13608" x1="135" y1="138.5" x2="66" y2="140" gradientUnits="userSpaceOnUse">
<stop stop-color="#878787"/>
<stop offset="1" stop-color="#4B4B4B"/>
</linearGradient>
<linearGradient id="paint7_linear_419_13608" x1="107.585" y1="146.5" x2="67.2336" y2="147.013" gradientUnits="userSpaceOnUse">
<stop stop-color="#878787"/>
<stop offset="1" stop-color="#4B4B4B"/>
</linearGradient>
</defs>
</svg>
