<svg width="1600" height="971" viewBox="0 0 1600 971" fill="none" xmlns="http://www.w3.org/2000/svg">
<path fill-rule="evenodd" clip-rule="evenodd" d="M99 970L99 -30L100 -30L100 970L99 970Z" fill="#262626"/>
<path fill-rule="evenodd" clip-rule="evenodd" d="M-1 69.9999L1599 70L1599 71L-1 70.9999L-1 69.9999Z" fill="#262626"/>
<path fill-rule="evenodd" clip-rule="evenodd" d="M199 970L199 -30L200 -30L200 970L199 970Z" fill="#262626"/>
<path fill-rule="evenodd" clip-rule="evenodd" d="M-1 170L1599 170L1599 171L-1 171L-1 170Z" fill="#262626"/>
<path fill-rule="evenodd" clip-rule="evenodd" d="M299 970L299 -30L300 -30L300 970L299 970Z" fill="#262626"/>
<path fill-rule="evenodd" clip-rule="evenodd" d="M-1 270L1599 270L1599 271L-1 271L-1 270Z" fill="#262626"/>
<path fill-rule="evenodd" clip-rule="evenodd" d="M399 970L399 -30L400 -30L400 970L399 970Z" fill="#262626"/>
<path fill-rule="evenodd" clip-rule="evenodd" d="M-1 370L1599 370L1599 371L-1 371L-1 370Z" fill="#262626"/>
<path fill-rule="evenodd" clip-rule="evenodd" d="M499 970L499 -30L500 -30L500 970L499 970Z" fill="#262626"/>
<path fill-rule="evenodd" clip-rule="evenodd" d="M-1 470L1599 470L1599 471L-1 471L-1 470Z" fill="#262626"/>
<path fill-rule="evenodd" clip-rule="evenodd" d="M599 970L599 -30L600 -30L600 970L599 970Z" fill="#262626"/>
<path fill-rule="evenodd" clip-rule="evenodd" d="M-1 570L1599 570L1599 571L-1 571L-1 570Z" fill="#262626"/>
<path fill-rule="evenodd" clip-rule="evenodd" d="M699 970L699 -30L700 -30L700 970L699 970Z" fill="#262626"/>
<path fill-rule="evenodd" clip-rule="evenodd" d="M-1 670L1599 670L1599 671L-1 671L-1 670Z" fill="#262626"/>
<path fill-rule="evenodd" clip-rule="evenodd" d="M799 970L799 -30L800 -30L800 970L799 970Z" fill="#262626"/>
<path fill-rule="evenodd" clip-rule="evenodd" d="M-1 770L1599 770L1599 771L-1 771L-1 770Z" fill="#262626"/>
<path fill-rule="evenodd" clip-rule="evenodd" d="M899 970L899 -30L900 -30L900 970L899 970Z" fill="#262626"/>
<path fill-rule="evenodd" clip-rule="evenodd" d="M-1 870L1599 870L1599 871L-1 871L-1 870Z" fill="#262626"/>
<path fill-rule="evenodd" clip-rule="evenodd" d="M999 970L999 -30L1000 -30L1000 970L999 970Z" fill="#262626"/>
<path fill-rule="evenodd" clip-rule="evenodd" d="M-1 970L1599 970L1599 971L-1 971L-1 970Z" fill="#262626"/>
<path fill-rule="evenodd" clip-rule="evenodd" d="M1099 970L1099 -30L1100 -30L1100 970L1099 970Z" fill="#262626"/>
<path fill-rule="evenodd" clip-rule="evenodd" d="M1199 970L1199 -30L1200 -30L1200 970L1199 970Z" fill="#262626"/>
<path fill-rule="evenodd" clip-rule="evenodd" d="M1299 970L1299 -30L1300 -30L1300 970L1299 970Z" fill="#262626"/>
<path fill-rule="evenodd" clip-rule="evenodd" d="M1399 970L1399 -30L1400 -30L1400 970L1399 970Z" fill="#262626"/>
<path fill-rule="evenodd" clip-rule="evenodd" d="M1499 970L1499 -30L1500 -30L1500 970L1499 970Z" fill="#262626"/>
<path fill-rule="evenodd" clip-rule="evenodd" d="M1599 970L1599 -30L1600 -30L1600 970L1599 970Z" fill="#262626"/>
<rect x="-1" y="571" width="1600" height="400" fill="url(#paint0_linear_419_13651)"/>
<defs>
<linearGradient id="paint0_linear_419_13651" x1="799" y1="571" x2="799" y2="971" gradientUnits="userSpaceOnUse">
<stop stop-color="#17181D" stop-opacity="0"/>
<stop offset="1" stop-color="#17181D"/>
</linearGradient>
</defs>
</svg>
